<svg xmlns="http://www.w3.org/2000/svg" viewBox="0 0 16 16" fill="none" shape-rendering="crispEdges" aria-hidden="true"><metadata xmlns:rdf="http://www.w3.org/1999/02/22-rdf-syntax-ns#" xmlns:xsi="http://www.w3.org/2001/XMLSchema-instance" xmlns:dc="http://purl.org/dc/elements/1.1/" xmlns:dcterms="http://purl.org/dc/terms/"><rdf:RDF><rdf:Description><dc:title>Pixel Art</dc:title><dc:creator>DiceBear</dc:creator><dc:source xsi:type="dcterms:URI">https://www.figma.com/community/file/1198754108850888330</dc:source><dcterms:license xsi:type="dcterms:URI">https://creativecommons.org/publicdomain/zero/1.0/</dcterms:license><dc:rights>“Pixel Art” (https://www.figma.com/community/file/1198754108850888330) by “DiceBear”, licensed under “CC0 1.0” (https://creativecommons.org/publicdomain/zero/1.0/)</dc:rights></rdf:Description></rdf:RDF></metadata><defs><g id="clothes-variant23-e0d41b25"><path d="M8 1h3v1h1v2H0V2h1V1h3v1h4z" fill="#00b159"/><rect x="2" y="1" width="1" height="3" fill="white" fill-opacity=".2"/><rect x="9" y="1" width="1" height="3" fill="white" fill-opacity=".2"/></g><g id="eyes-variant07-e0d41b25"><rect width="3" height="2" fill="white"/><rect x="5" width="3" height="2" fill="white"/><rect x="7" y="1" width="1" height="1" fill="#76778b"/><rect x="2" y="1" width="1" height="1" fill="#76778b"/></g><g id="mouth-happy04-e0d41b25"><path d="M3 0v1H2v1h2V0z" fill="#de0f0d"/></g><g id="hair-long15-e0d41b25"><g fill="#83623b"><path d="M5 0h1v1H5z"/><path d="M2 3h1V1h2v1h1V1h1v1h1V1H7V0h2v2h1V1h1v1h1V1h1v1h1v1h-1v1H4v1H3v1H2V5H1V4h1z"/><path d="M2 3H1V2h1zM1 6H0V5h1zm1 2H1V6h1zm0 0h1v2H2z"/><path fill-rule="evenodd" clip-rule="evenodd" d="M14 4h-1v2h2V5h1V4h-1V3h-1zm0 0h1v1h-1z"/><path d="M12 1h-1V0h1zm1 7h1v2h-1z"/></g></g><clipPath id="clip-e0d41b25"><rect width="16" height="16" rx="0" ry="0"/></clipPath></defs><g clip-path="url(#clip-e0d41b25)"><rect width="16" height="16" fill="#c0aede"/><path d="M4 2h8v1h1v3h1v2h-1v3h-1v1H9v1h4v1h1v2H2v-2h1v-1h4v-1H4v-1H3V8H2V6h1V3h1z" fill="#ffdbac"/><path d="M4 2h8v1h1v3h1v2h-1v3h-1v1H4v-1H3V8H2V6h1V3h1z" fill="white" fill-opacity=".1"/><use transform="translate(2 12)" href="#clothes-variant23-e0d41b25"/><use transform="translate(4 5)" href="#eyes-variant07-e0d41b25"/><use transform="translate(6 9)" href="#mouth-happy04-e0d41b25"/><use href="#hair-long15-e0d41b25"/></g></svg>