<svg xmlns="http://www.w3.org/2000/svg" viewBox="0 0 16 16" fill="none" shape-rendering="crispEdges" aria-hidden="true"><metadata xmlns:rdf="http://www.w3.org/1999/02/22-rdf-syntax-ns#" xmlns:xsi="http://www.w3.org/2001/XMLSchema-instance" xmlns:dc="http://purl.org/dc/elements/1.1/" xmlns:dcterms="http://purl.org/dc/terms/"><rdf:RDF><rdf:Description><dc:title>Pixel Art</dc:title><dc:creator>DiceBear</dc:creator><dc:source xsi:type="dcterms:URI">https://www.figma.com/community/file/1198754108850888330</dc:source><dcterms:license xsi:type="dcterms:URI">https://creativecommons.org/publicdomain/zero/1.0/</dcterms:license><dc:rights>“Pixel Art” (https://www.figma.com/community/file/1198754108850888330) by “DiceBear”, licensed under “CC0 1.0” (https://creativecommons.org/publicdomain/zero/1.0/)</dc:rights></rdf:Description></rdf:RDF></metadata><defs><g id="clothes-variant20-e4d42171"><rect x="2" y="2" width="8" height="2" fill="#5bc0de"/><rect x="2" y="2" width="1" height="2" fill="white" fill-opacity=".3"/><rect x="9" y="2" width="1" height="2" fill="white" fill-opacity=".3"/></g><g id="eyes-variant03-e4d42171"><path d="M6 0h1v2H5V1h1zM1 0h1v2H0V1h1z" fill="white"/><rect width="1" height="1" transform="matrix(-1 0 0 1 7 1)" fill="#5b7c8b"/><rect width="1" height="1" transform="matrix(-1 0 0 1 2 1)" fill="#5b7c8b"/></g><g id="mouth-happy08-e4d42171"><path d="M0 2V1h3V0h1v1H3v1z" fill="#e35d6a"/></g><g id="hair-short05-e4d42171"><rect width="1" height="3" transform="matrix(-1 0 0 1 9 1)" fill="#603015"/><rect width="1" height="2" transform="matrix(-1 0 0 1 8 2)" fill="#603015"/><rect width="1" height="3" transform="matrix(-1 0 0 1 10 0)" fill="#603015"/><rect width="1" height="1" transform="matrix(-1 0 0 1 11 1)" fill="#603015"/></g><clipPath id="clip-e4d42171"><rect width="16" height="16" rx="0" ry="0"/></clipPath></defs><g clip-path="url(#clip-e4d42171)"><rect width="16" height="16" fill="#b6e3f4"/><path d="M4 2h8v1h1v3h1v2h-1v3h-1v1H9v1h4v1h1v2H2v-2h1v-1h4v-1H4v-1H3V8H2V6h1V3h1z" fill="#eac393"/><path d="M4 2h8v1h1v3h1v2h-1v3h-1v1H4v-1H3V8H2V6h1V3h1z" fill="white" fill-opacity=".1"/><use transform="translate(2 12)" href="#clothes-variant20-e4d42171"/><use transform="translate(4 5)" href="#eyes-variant03-e4d42171"/><use transform="translate(6 9)" href="#mouth-happy08-e4d42171"/><use href="#hair-short05-e4d42171"/></g></svg>