<svg xmlns="http://www.w3.org/2000/svg" viewBox="0 0 16 16" fill="none" shape-rendering="crispEdges" aria-hidden="true"><metadata xmlns:rdf="http://www.w3.org/1999/02/22-rdf-syntax-ns#" xmlns:xsi="http://www.w3.org/2001/XMLSchema-instance" xmlns:dc="http://purl.org/dc/elements/1.1/" xmlns:dcterms="http://purl.org/dc/terms/"><rdf:RDF><rdf:Description><dc:title>Pixel Art</dc:title><dc:creator>DiceBear</dc:creator><dc:source xsi:type="dcterms:URI">https://www.figma.com/community/file/1198754108850888330</dc:source><dcterms:license xsi:type="dcterms:URI">https://creativecommons.org/publicdomain/zero/1.0/</dcterms:license><dc:rights>“Pixel Art” (https://www.figma.com/community/file/1198754108850888330) by “DiceBear”, licensed under “CC0 1.0” (https://creativecommons.org/publicdomain/zero/1.0/)</dc:rights></rdf:Description></rdf:RDF></metadata><defs><g id="clothes-variant03-d3d64545"><path d="M8 1h3v1h1v2H0V2h1V1h3v1h4z" fill="#5bc0de"/></g><g id="eyes-variant07-d3d64545"><rect width="3" height="2" fill="white"/><rect x="5" width="3" height="2" fill="white"/><rect x="7" y="1" width="1" height="1" fill="#876658"/><rect x="2" y="1" width="1" height="1" fill="#876658"/></g><g id="mouth-sad04-d3d64545"><path d="M0 0h3v1H0z" fill="#c98276"/></g><g id="hair-long20-d3d64545"><path d="M4 1h8v1h1v1h1v3h-1V4h-1V3H6v1H3v2H2V3h1V2h1zM2 8h1v3h1v1h3v1H2zm10 4H9v1h5V8h-1v3h-1z" fill="#28150a"/></g><clipPath id="clip-d3d64545"><rect width="16" height="16" rx="0" ry="0"/></clipPath></defs><g clip-path="url(#clip-d3d64545)"><rect width="16" height="16" fill="#c0aede"/><path d="M4 2h8v1h1v3h1v2h-1v3h-1v1H9v1h4v1h1v2H2v-2h1v-1h4v-1H4v-1H3V8H2V6h1V3h1z" fill="#f5cfa0"/><path d="M4 2h8v1h1v3h1v2h-1v3h-1v1H4v-1H3V8H2V6h1V3h1z" fill="white" fill-opacity=".1"/><use transform="translate(2 12)" href="#clothes-variant03-d3d64545"/><use transform="translate(4 5)" href="#eyes-variant07-d3d64545"/><use transform="translate(6 9)" href="#mouth-sad04-d3d64545"/><use href="#hair-long20-d3d64545"/></g></svg>