<svg xmlns="http://www.w3.org/2000/svg" viewBox="0 0 16 16" fill="none" shape-rendering="crispEdges" aria-hidden="true"><metadata xmlns:rdf="http://www.w3.org/1999/02/22-rdf-syntax-ns#" xmlns:xsi="http://www.w3.org/2001/XMLSchema-instance" xmlns:dc="http://purl.org/dc/elements/1.1/" xmlns:dcterms="http://purl.org/dc/terms/"><rdf:RDF><rdf:Description><dc:title>Pixel Art</dc:title><dc:creator>DiceBear</dc:creator><dc:source xsi:type="dcterms:URI">https://www.figma.com/community/file/1198754108850888330</dc:source><dcterms:license xsi:type="dcterms:URI">https://creativecommons.org/publicdomain/zero/1.0/</dcterms:license><dc:rights>“Pixel Art” (https://www.figma.com/community/file/1198754108850888330) by “DiceBear”, licensed under “CC0 1.0” (https://creativecommons.org/publicdomain/zero/1.0/)</dc:rights></rdf:Description></rdf:RDF></metadata><defs><g id="clothes-variant22-e5d42304"><path d="M4 1H2v3h2zm6 0H8v3h2z" fill="#ffd969"/><rect x="3" y="1" width="1" height="3" fill="white" fill-opacity=".2"/><rect x="8" y="1" width="1" height="3" fill="white" fill-opacity=".2"/></g><g id="eyes-variant12-e5d42304"><path fill-rule="evenodd" clip-rule="evenodd" d="M1 1h1v2H0V2h1zm5 0h1v2H5V2h1z" fill="white"/><path fill-rule="evenodd" clip-rule="evenodd" d="M2 1v1H1v1h2V1zm5 0v1H6v1h2V1z" fill="#876658"/><path fill-rule="evenodd" clip-rule="evenodd" d="M2 1v1h1V1zM1 2v1h1V2zm6-1v1h1V1zM6 2v1h1V2z" fill="white" fill-opacity=".5"/></g><g id="mouth-happy06-e5d42304"><path d="M0 0v1h1v1h2V1h1V0z" fill="#de0f0d"/></g><g id="hair-long09-e5d42304"><path d="M2 1h12v1h1v11h-1v-1h-1V8h1V6h-1V3H3v3H2v2h1v4H2v1H1V2h1z" fill="#009bbd"/></g><clipPath id="clip-e5d42304"><rect width="16" height="16" rx="0" ry="0"/></clipPath></defs><g clip-path="url(#clip-e5d42304)"><rect width="16" height="16" fill="#b6e3f4"/><path d="M4 2h8v1h1v3h1v2h-1v3h-1v1H9v1h4v1h1v2H2v-2h1v-1h4v-1H4v-1H3V8H2V6h1V3h1z" fill="#b68655"/><path d="M4 2h8v1h1v3h1v2h-1v3h-1v1H4v-1H3V8H2V6h1V3h1z" fill="white" fill-opacity=".1"/><use transform="translate(2 12)" href="#clothes-variant22-e5d42304"/><use transform="translate(4 5)" href="#eyes-variant12-e5d42304"/><use transform="translate(6 9)" href="#mouth-happy06-e5d42304"/><use href="#hair-long09-e5d42304"/></g></svg>