<svg xmlns="http://www.w3.org/2000/svg" viewBox="0 0 16 16" fill="none" shape-rendering="crispEdges" aria-hidden="true"><metadata xmlns:rdf="http://www.w3.org/1999/02/22-rdf-syntax-ns#" xmlns:xsi="http://www.w3.org/2001/XMLSchema-instance" xmlns:dc="http://purl.org/dc/elements/1.1/" xmlns:dcterms="http://purl.org/dc/terms/"><rdf:RDF><rdf:Description><dc:title>Pixel Art</dc:title><dc:creator>DiceBear</dc:creator><dc:source xsi:type="dcterms:URI">https://www.figma.com/community/file/1198754108850888330</dc:source><dcterms:license xsi:type="dcterms:URI">https://creativecommons.org/publicdomain/zero/1.0/</dcterms:license><dc:rights>“Pixel Art” (https://www.figma.com/community/file/1198754108850888330) by “DiceBear”, licensed under “CC0 1.0” (https://creativecommons.org/publicdomain/zero/1.0/)</dc:rights></rdf:Description></rdf:RDF></metadata><defs><g id="clothes-variant11-e1d41cb8"><path d="M8 1h3v1h1v2H0V2h1V1h3v1h1v1h2V2h1z" fill="#d11141"/></g><g id="eyes-variant01-e1d41cb8"><rect width="3" height="3" transform="matrix(-1 0 0 1 8 0)" fill="white"/><rect width="3" height="3" transform="matrix(-1 0 0 1 3 0)" fill="white"/><rect width="2" height="1" transform="matrix(-1 0 0 1 8 1)" fill="#76778b"/><rect width="2" height="1" transform="matrix(-1 0 0 1 3 1)" fill="#76778b"/><rect width="1" height="1" transform="matrix(-1 0 0 1 8 1)" fill="white" fill-opacity=".7"/><rect width="1" height="1" transform="matrix(-1 0 0 1 3 1)" fill="white" fill-opacity=".7"/></g><g id="glasses-dark07-e1d41cb8"><path fill-rule="evenodd" clip-rule="evenodd" d="M10 0H7v1H5V0H2v1H0v1h1v2h1v1h3V4h2v1h3V4h1V2h1V1h-2zm0 1v3H7V1zM5 4H2V1h3z" fill="#a04b5d"/><rect x="7" y="1" width="3" height="3" fill="black" fill-opacity=".3"/><rect x="2" y="1" width="3" height="3" fill="black" fill-opacity=".3"/><rect y="1" width="1" height="1" fill="white" fill-opacity=".2"/><rect x="11" y="1" width="1" height="1" fill="white" fill-opacity=".2"/></g><g id="mouth-happy12-e1d41cb8"><path d="M0 1v1h1v1h2V2h1V1H3V0H1v1z" fill="#de0f0d"/><path d="M1 1v1h2V1z" fill="white"/></g><g id="hair-short19-e1d41cb8"><rect x="4" y="2" width="8" height="1" fill="#bd1700"/><rect x="3" y="3" width="3" height="1" fill="#bd1700"/><rect x="10" y="3" width="3" height="1" fill="#bd1700"/><rect x="8" y="3" width="1" height="1" fill="#bd1700"/><rect x="8" y="3" width="1" height="1" fill="#bd1700"/></g><clipPath id="clip-e1d41cb8"><rect width="16" height="16" rx="0" ry="0"/></clipPath></defs><g clip-path="url(#clip-e1d41cb8)"><rect width="16" height="16" fill="#ffdfbf"/><path d="M4 2h8v1h1v3h1v2h-1v3h-1v1H9v1h4v1h1v2H2v-2h1v-1h4v-1H4v-1H3V8H2V6h1V3h1z" fill="#a26d3d"/><path d="M4 2h8v1h1v3h1v2h-1v3h-1v1H4v-1H3V8H2V6h1V3h1z" fill="white" fill-opacity=".1"/><use transform="translate(2 12)" href="#clothes-variant11-e1d41cb8"/><use transform="translate(4 5)" href="#eyes-variant01-e1d41cb8"/><use transform="translate(2 4)" href="#glasses-dark07-e1d41cb8"/><use transform="translate(6 9)" href="#mouth-happy12-e1d41cb8"/><use href="#hair-short19-e1d41cb8"/></g></svg>