<svg xmlns="http://www.w3.org/2000/svg" viewBox="0 0 16 16" fill="none" shape-rendering="crispEdges" aria-hidden="true"><metadata xmlns:rdf="http://www.w3.org/1999/02/22-rdf-syntax-ns#" xmlns:xsi="http://www.w3.org/2001/XMLSchema-instance" xmlns:dc="http://purl.org/dc/elements/1.1/" xmlns:dcterms="http://purl.org/dc/terms/"><rdf:RDF><rdf:Description><dc:title>Pixel Art</dc:title><dc:creator>DiceBear</dc:creator><dc:source xsi:type="dcterms:URI">https://www.figma.com/community/file/1198754108850888330</dc:source><dcterms:license xsi:type="dcterms:URI">https://creativecommons.org/publicdomain/zero/1.0/</dcterms:license><dc:rights>“Pixel Art” (https://www.figma.com/community/file/1198754108850888330) by “DiceBear”, licensed under “CC0 1.0” (https://creativecommons.org/publicdomain/zero/1.0/)</dc:rights></rdf:Description></rdf:RDF></metadata><defs><g id="clothes-variant04-ded1d968"><path d="M3 1H1v1H0v2h12V2h-1V1H9v1H3z" fill="#ae0001"/></g><g id="eyes-variant10-ded1d968"><rect width="3" height="3" fill="white"/><rect x="5" width="3" height="3" fill="white"/><rect x="6" width="2" height="2" fill="#697b94"/><rect x="1" width="2" height="2" fill="#697b94"/><rect x="1" width="1" height="1" fill="white" fill-opacity=".4"/><rect x="2" y="1" width="1" height="1" fill="white" fill-opacity=".4"/><rect x="6" width="1" height="1" fill="white" fill-opacity=".4"/><rect x="7" y="1" width="1" height="1" fill="white" fill-opacity=".4"/><rect x="7" width="1" height="1" fill="white" fill-opacity=".7"/><rect x="2" width="1" height="1" fill="white" fill-opacity=".7"/></g><g id="mouth-happy12-ded1d968"><path d="M0 1v1h1v1h2V2h1V1H3V0H1v1z" fill="#e35d6a"/><path d="M1 1v1h2V1z" fill="white"/></g><g id="hair-long03-ded1d968"><path d="M4 2h8v1h1v2h1v6h1v2h-2v-1h-1V5h-1V4H5v1H4v7H3v1H1v-2h1V5h1V3h1z" fill="#cab188"/></g><clipPath id="clip-ded1d968"><rect width="16" height="16" rx="0" ry="0"/></clipPath></defs><g clip-path="url(#clip-ded1d968)"><rect width="16" height="16" fill="#b6e3f4"/><path d="M4 2h8v1h1v3h1v2h-1v3h-1v1H9v1h4v1h1v2H2v-2h1v-1h4v-1H4v-1H3V8H2V6h1V3h1z" fill="#eac393"/><path d="M4 2h8v1h1v3h1v2h-1v3h-1v1H4v-1H3V8H2V6h1V3h1z" fill="white" fill-opacity=".1"/><use transform="translate(2 12)" href="#clothes-variant04-ded1d968"/><use transform="translate(4 5)" href="#eyes-variant10-ded1d968"/><use transform="translate(6 9)" href="#mouth-happy12-ded1d968"/><use href="#hair-long03-ded1d968"/></g></svg>