<svg xmlns="http://www.w3.org/2000/svg" viewBox="0 0 16 16" fill="none" shape-rendering="crispEdges" aria-hidden="true"><metadata xmlns:rdf="http://www.w3.org/1999/02/22-rdf-syntax-ns#" xmlns:xsi="http://www.w3.org/2001/XMLSchema-instance" xmlns:dc="http://purl.org/dc/elements/1.1/" xmlns:dcterms="http://purl.org/dc/terms/"><rdf:RDF><rdf:Description><dc:title>Pixel Art</dc:title><dc:creator>DiceBear</dc:creator><dc:source xsi:type="dcterms:URI">https://www.figma.com/community/file/1198754108850888330</dc:source><dcterms:license xsi:type="dcterms:URI">https://creativecommons.org/publicdomain/zero/1.0/</dcterms:license><dc:rights>“Pixel Art” (https://www.figma.com/community/file/1198754108850888330) by “DiceBear”, licensed under “CC0 1.0” (https://creativecommons.org/publicdomain/zero/1.0/)</dc:rights></rdf:Description></rdf:RDF></metadata><defs><g id="accessories-variant02-dfd41992"><rect x="12" width="1" height="2" fill="#d3d3d3"/><rect x="1" width="1" height="2" fill="#d3d3d3"/><rect x="1" width="1" height="1" fill="white" fill-opacity=".5"/><rect x="12" width="1" height="1" fill="white" fill-opacity=".5"/></g><g id="clothes-variant21-dfd41992"><path d="M3 1H2v3h3V3H4V2H3zm7 0H9v1H8v1H7v1h3z" fill="#03396c"/><rect x="2" y="1" width="1" height="1" fill="white" fill-opacity=".5"/><rect x="3" y="2" width="1" height="1" fill="white" fill-opacity=".5"/><rect x="4" y="3" width="1" height="1" fill="white" fill-opacity=".5"/><rect x="7" y="3" width="1" height="1" fill="white" fill-opacity=".5"/><rect x="8" y="2" width="1" height="1" fill="white" fill-opacity=".5"/><rect x="9" y="2" width="1" height="1" fill="white" fill-opacity=".3"/><rect x="9" y="1" width="1" height="1" fill="white" fill-opacity=".5"/><rect x="8" y="3" width="1" height="1" fill="white" fill-opacity=".3"/><rect x="3" y="3" width="1" height="1" fill="white" fill-opacity=".3"/><rect x="2" y="2" width="1" height="1" fill="white" fill-opacity=".3"/></g><g id="eyes-variant07-dfd41992"><rect width="3" height="2" fill="white"/><rect x="5" width="3" height="2" fill="white"/><rect x="7" y="1" width="1" height="1" fill="#588387"/><rect x="2" y="1" width="1" height="1" fill="#588387"/></g><g id="mouth-sad06-dfd41992"><path d="M0 0h4v1H0z" fill="#de0f0d"/></g><g id="hair-long10-dfd41992"><path d="M4 1v1H3v1H2v1H1v6h2V8H2V6h1V4h1V3h2v1h1V3h1V2H7V1z" fill="#603a14"/></g><clipPath id="clip-dfd41992"><rect width="16" height="16" rx="0" ry="0"/></clipPath></defs><g clip-path="url(#clip-dfd41992)"><rect width="16" height="16" fill="#ffd5dc"/><path d="M4 2h8v1h1v3h1v2h-1v3h-1v1H9v1h4v1h1v2H2v-2h1v-1h4v-1H4v-1H3V8H2V6h1V3h1z" fill="#8d5524"/><path d="M4 2h8v1h1v3h1v2h-1v3h-1v1H4v-1H3V8H2V6h1V3h1z" fill="white" fill-opacity=".1"/><use transform="translate(1 7)" href="#accessories-variant02-dfd41992"/><use transform="translate(2 12)" href="#clothes-variant21-dfd41992"/><use transform="translate(4 5)" href="#eyes-variant07-dfd41992"/><use transform="translate(6 9)" href="#mouth-sad06-dfd41992"/><use href="#hair-long10-dfd41992"/></g></svg>