<svg xmlns="http://www.w3.org/2000/svg" viewBox="0 0 16 16" fill="none" shape-rendering="crispEdges" aria-hidden="true"><metadata xmlns:rdf="http://www.w3.org/1999/02/22-rdf-syntax-ns#" xmlns:xsi="http://www.w3.org/2001/XMLSchema-instance" xmlns:dc="http://purl.org/dc/elements/1.1/" xmlns:dcterms="http://purl.org/dc/terms/"><rdf:RDF><rdf:Description><dc:title>Pixel Art</dc:title><dc:creator>DiceBear</dc:creator><dc:source xsi:type="dcterms:URI">https://www.figma.com/community/file/1198754108850888330</dc:source><dcterms:license xsi:type="dcterms:URI">https://creativecommons.org/publicdomain/zero/1.0/</dcterms:license><dc:rights>“Pixel Art” (https://www.figma.com/community/file/1198754108850888330) by “DiceBear”, licensed under “CC0 1.0” (https://creativecommons.org/publicdomain/zero/1.0/)</dc:rights></rdf:Description></rdf:RDF></metadata><defs><g id="clothes-variant15-e8d427bd"><path d="M4 2H2v1H1v1h4V3H4zm6 1h1v1H7V3h1V2h2z" fill="#03396c"/></g><g id="eyes-variant01-e8d427bd"><rect width="3" height="3" transform="matrix(-1 0 0 1 8 0)" fill="white"/><rect width="3" height="3" transform="matrix(-1 0 0 1 3 0)" fill="white"/><rect width="2" height="1" transform="matrix(-1 0 0 1 8 1)" fill="#697b94"/><rect width="2" height="1" transform="matrix(-1 0 0 1 3 1)" fill="#697b94"/><rect width="1" height="1" transform="matrix(-1 0 0 1 8 1)" fill="white" fill-opacity=".7"/><rect width="1" height="1" transform="matrix(-1 0 0 1 3 1)" fill="white" fill-opacity=".7"/></g><g id="mouth-sad02-e8d427bd"><path d="M1 0v1h2v1h1V1H3V0z" fill="#e35d6a"/></g><g id="hair-long18-e8d427bd"><path d="M13 2H3v1H2v3h1V4h10v2h1V3h-1zM2 8h1v2H2v1H1V9h1zm-1 3v1H0v-1zm15 0h-1V9h-1V8h-1v2h1v1h1v1h1z" fill="#91cb15"/></g><clipPath id="clip-e8d427bd"><rect width="16" height="16" rx="0" ry="0"/></clipPath></defs><g clip-path="url(#clip-e8d427bd)"><rect width="16" height="16" fill="#b6e3f4"/><path d="M4 2h8v1h1v3h1v2h-1v3h-1v1H9v1h4v1h1v2H2v-2h1v-1h4v-1H4v-1H3V8H2V6h1V3h1z" fill="#b68655"/><path d="M4 2h8v1h1v3h1v2h-1v3h-1v1H4v-1H3V8H2V6h1V3h1z" fill="white" fill-opacity=".1"/><use transform="translate(2 12)" href="#clothes-variant15-e8d427bd"/><use transform="translate(4 5)" href="#eyes-variant01-e8d427bd"/><use transform="translate(6 9)" href="#mouth-sad02-e8d427bd"/><use href="#hair-long18-e8d427bd"/></g></svg>