<svg xmlns="http://www.w3.org/2000/svg" viewBox="0 0 16 16" fill="none" shape-rendering="crispEdges" aria-hidden="true"><metadata xmlns:rdf="http://www.w3.org/1999/02/22-rdf-syntax-ns#" xmlns:xsi="http://www.w3.org/2001/XMLSchema-instance" xmlns:dc="http://purl.org/dc/elements/1.1/" xmlns:dcterms="http://purl.org/dc/terms/"><rdf:RDF><rdf:Description><dc:title>Pixel Art</dc:title><dc:creator>DiceBear</dc:creator><dc:source xsi:type="dcterms:URI">https://www.figma.com/community/file/1198754108850888330</dc:source><dcterms:license xsi:type="dcterms:URI">https://creativecommons.org/publicdomain/zero/1.0/</dcterms:license><dc:rights>“Pixel Art” (https://www.figma.com/community/file/1198754108850888330) by “DiceBear”, licensed under “CC0 1.0” (https://creativecommons.org/publicdomain/zero/1.0/)</dc:rights></rdf:Description></rdf:RDF></metadata><defs><g id="clothes-variant10-ccd63a40"><path d="M2 1h1v1h6V1h1v1h1v2H1V2h1z" fill="#ffd969"/><rect x="7" y="3" width="2" height="1" fill="white" fill-opacity=".5"/></g><g id="eyes-variant06-ccd63a40"><rect width="3" height="2" fill="white"/><rect x="1" y="1" width="1" height="1" fill="#647b90"/><rect x="5" width="3" height="2" fill="white"/><rect x="6" y="1" width="1" height="1" fill="#647b90"/></g><g id="beard-variant08-ccd63a40"><mask id="beardVariant08-a" style="mask-type:luminance"><path opacity=".9" d="M1 3h8V0h1v5H9v1H1V5H0V0h1z" fill="#28150a"/></mask><g mask="url(#beardVariant08-a)"><rect x="-3" y="-6" width="16" height="16" fill="#28150a"/><rect x="-3" y="-6" width="16" height="16" fill="white" fill-opacity=".3"/></g></g><g id="mouth-happy12-ccd63a40"><path d="M0 1v1h1v1h2V2h1V1H3V0H1v1z" fill="#de0f0d"/><path d="M1 1v1h2V1z" fill="white"/></g><g id="hair-short03-ccd63a40"><rect width="8" height="1" transform="matrix(-1 0 0 1 12 2)" fill="#28150a"/><rect width="1" height="1" transform="matrix(-1 0 0 1 13 3)" fill="#28150a"/><rect width="3" height="1" transform="matrix(-1 0 0 1 6 3)" fill="#28150a"/><rect width="2" height="1" transform="matrix(-1 0 0 1 5 4)" fill="#28150a"/></g><clipPath id="clip-ccd63a40"><rect width="16" height="16" rx="0" ry="0"/></clipPath></defs><g clip-path="url(#clip-ccd63a40)"><rect width="16" height="16" fill="#d1d4f9"/><path d="M4 2h8v1h1v3h1v2h-1v3h-1v1H9v1h4v1h1v2H2v-2h1v-1h4v-1H4v-1H3V8H2V6h1V3h1z" fill="#a26d3d"/><path d="M4 2h8v1h1v3h1v2h-1v3h-1v1H4v-1H3V8H2V6h1V3h1z" fill="white" fill-opacity=".1"/><use transform="translate(2 12)" href="#clothes-variant10-ccd63a40"/><use transform="translate(4 5)" href="#eyes-variant06-ccd63a40"/><use transform="translate(3 6)" href="#beard-variant08-ccd63a40"/><use transform="translate(6 9)" href="#mouth-happy12-ccd63a40"/><use href="#hair-short03-ccd63a40"/></g></svg>