<svg xmlns="http://www.w3.org/2000/svg" viewBox="0 0 16 16" fill="none" shape-rendering="crispEdges" aria-hidden="true"><metadata xmlns:rdf="http://www.w3.org/1999/02/22-rdf-syntax-ns#" xmlns:xsi="http://www.w3.org/2001/XMLSchema-instance" xmlns:dc="http://purl.org/dc/elements/1.1/" xmlns:dcterms="http://purl.org/dc/terms/"><rdf:RDF><rdf:Description><dc:title>Pixel Art</dc:title><dc:creator>DiceBear</dc:creator><dc:source xsi:type="dcterms:URI">https://www.figma.com/community/file/1198754108850888330</dc:source><dcterms:license xsi:type="dcterms:URI">https://creativecommons.org/publicdomain/zero/1.0/</dcterms:license><dc:rights>“Pixel Art” (https://www.figma.com/community/file/1198754108850888330) by “DiceBear”, licensed under “CC0 1.0” (https://creativecommons.org/publicdomain/zero/1.0/)</dc:rights></rdf:Description></rdf:RDF></metadata><defs><g id="accessories-variant04-e2d41e4b"><rect x="1" width="1" height="1" fill="#ffd700"/><rect x="12" width="1" height="1" fill="#ffd700"/></g><g id="clothes-variant16-e2d41e4b"><path d="M3 1H1v1H0v2h5V3H4V2H3zm8 0H9v1H8v1H7v1h5V2h-1z" fill="#ae0001"/><rect x="9" y="1" width="1" height="1" fill="white" fill-opacity=".3"/><rect x="8" y="2" width="1" height="1" fill="white" fill-opacity=".3"/><rect x="7" y="3" width="1" height="1" fill="white" fill-opacity=".3"/><rect x="4" y="3" width="1" height="1" fill="white" fill-opacity=".3"/><rect x="3" y="2" width="1" height="1" fill="white" fill-opacity=".3"/><rect x="2" y="1" width="1" height="1" fill="white" fill-opacity=".3"/></g><g id="eyes-variant10-e2d41e4b"><rect width="3" height="3" fill="white"/><rect x="5" width="3" height="3" fill="white"/><rect x="6" width="2" height="2" fill="#647b90"/><rect x="1" width="2" height="2" fill="#647b90"/><rect x="1" width="1" height="1" fill="white" fill-opacity=".4"/><rect x="2" y="1" width="1" height="1" fill="white" fill-opacity=".4"/><rect x="6" width="1" height="1" fill="white" fill-opacity=".4"/><rect x="7" y="1" width="1" height="1" fill="white" fill-opacity=".4"/><rect x="7" width="1" height="1" fill="white" fill-opacity=".7"/><rect x="2" width="1" height="1" fill="white" fill-opacity=".7"/></g><g id="mouth-happy04-e2d41e4b"><path d="M3 0v1H2v1h2V0z" fill="#d29985"/></g><g id="hair-long16-e2d41e4b"><path d="M3 1h8v1h2v1h1v3h-1V4h-2V3H6v1H5V3H4v1H3v2H2v2h1v2H1V3h1V2h1zm11 7h-1v2h1z" fill="#cab188"/></g><clipPath id="clip-e2d41e4b"><rect width="16" height="16" rx="0" ry="0"/></clipPath></defs><g clip-path="url(#clip-e2d41e4b)"><rect width="16" height="16" fill="#b6e3f4"/><path d="M4 2h8v1h1v3h1v2h-1v3h-1v1H9v1h4v1h1v2H2v-2h1v-1h4v-1H4v-1H3V8H2V6h1V3h1z" fill="#a26d3d"/><path d="M4 2h8v1h1v3h1v2h-1v3h-1v1H4v-1H3V8H2V6h1V3h1z" fill="white" fill-opacity=".1"/><use transform="translate(1 7)" href="#accessories-variant04-e2d41e4b"/><use transform="translate(2 12)" href="#clothes-variant16-e2d41e4b"/><use transform="translate(4 5)" href="#eyes-variant10-e2d41e4b"/><use transform="translate(6 9)" href="#mouth-happy04-e2d41e4b"/><use href="#hair-long16-e2d41e4b"/></g></svg>