<svg xmlns="http://www.w3.org/2000/svg" viewBox="0 0 16 16" fill="none" shape-rendering="crispEdges" aria-hidden="true"><metadata xmlns:rdf="http://www.w3.org/1999/02/22-rdf-syntax-ns#" xmlns:xsi="http://www.w3.org/2001/XMLSchema-instance" xmlns:dc="http://purl.org/dc/elements/1.1/" xmlns:dcterms="http://purl.org/dc/terms/"><rdf:RDF><rdf:Description><dc:title>Pixel Art</dc:title><dc:creator>DiceBear</dc:creator><dc:source xsi:type="dcterms:URI">https://www.figma.com/community/file/1198754108850888330</dc:source><dcterms:license xsi:type="dcterms:URI">https://creativecommons.org/publicdomain/zero/1.0/</dcterms:license><dc:rights>“Pixel Art” (https://www.figma.com/community/file/1198754108850888330) by “DiceBear”, licensed under “CC0 1.0” (https://creativecommons.org/publicdomain/zero/1.0/)</dc:rights></rdf:Description></rdf:RDF></metadata><defs><g id="clothes-variant23-e7d4262a"><path d="M8 1h3v1h1v2H0V2h1V1h3v1h4z" fill="#ff6f69"/><rect x="2" y="1" width="1" height="3" fill="white" fill-opacity=".2"/><rect x="9" y="1" width="1" height="3" fill="white" fill-opacity=".2"/></g><g id="eyes-variant01-e7d4262a"><rect width="3" height="3" transform="matrix(-1 0 0 1 8 0)" fill="white"/><rect width="3" height="3" transform="matrix(-1 0 0 1 3 0)" fill="white"/><rect width="2" height="1" transform="matrix(-1 0 0 1 8 1)" fill="#647b90"/><rect width="2" height="1" transform="matrix(-1 0 0 1 3 1)" fill="#647b90"/><rect width="1" height="1" transform="matrix(-1 0 0 1 8 1)" fill="white" fill-opacity=".7"/><rect width="1" height="1" transform="matrix(-1 0 0 1 3 1)" fill="white" fill-opacity=".7"/></g><g id="mouth-sad07-e7d4262a"><path d="M1 0h2v1H1z" fill="#d29985"/></g><g id="hair-long06-e7d4262a"><path d="M3 2h10v1h1v3h-1V4H3v2H2V3h1zm10 6h1v1h1v2h-1v-1h-1zm2 3h1v1h-1z" fill="#28150a"/></g><clipPath id="clip-e7d4262a"><rect width="16" height="16" rx="0" ry="0"/></clipPath></defs><g clip-path="url(#clip-e7d4262a)"><rect width="16" height="16" fill="#b6e3f4"/><path d="M4 2h8v1h1v3h1v2h-1v3h-1v1H9v1h4v1h1v2H2v-2h1v-1h4v-1H4v-1H3V8H2V6h1V3h1z" fill="#8d5524"/><path d="M4 2h8v1h1v3h1v2h-1v3h-1v1H4v-1H3V8H2V6h1V3h1z" fill="white" fill-opacity=".1"/><use transform="translate(2 12)" href="#clothes-variant23-e7d4262a"/><use transform="translate(4 5)" href="#eyes-variant01-e7d4262a"/><use transform="translate(6 9)" href="#mouth-sad07-e7d4262a"/><use href="#hair-long06-e7d4262a"/></g></svg>