<svg xmlns="http://www.w3.org/2000/svg" viewBox="0 0 16 16" fill="none" shape-rendering="crispEdges" aria-hidden="true"><metadata xmlns:rdf="http://www.w3.org/1999/02/22-rdf-syntax-ns#" xmlns:xsi="http://www.w3.org/2001/XMLSchema-instance" xmlns:dc="http://purl.org/dc/elements/1.1/" xmlns:dcterms="http://purl.org/dc/terms/"><rdf:RDF><rdf:Description><dc:title>Pixel Art</dc:title><dc:creator>DiceBear</dc:creator><dc:source xsi:type="dcterms:URI">https://www.figma.com/community/file/1198754108850888330</dc:source><dcterms:license xsi:type="dcterms:URI">https://creativecommons.org/publicdomain/zero/1.0/</dcterms:license><dc:rights>“Pixel Art” (https://www.figma.com/community/file/1198754108850888330) by “DiceBear”, licensed under “CC0 1.0” (https://creativecommons.org/publicdomain/zero/1.0/)</dc:rights></rdf:Description></rdf:RDF></metadata><defs><g id="clothes-variant02-d5d6486b"><path d="M8 1h3v1h1v2H0V2h1V1h3v2h4z" fill="#ffc425"/><rect x="3" y="2" width="1" height="1" fill="white" fill-opacity=".2"/><rect x="2" y="3" width="1" height="1" transform="rotate(.4 2 3)" fill="white" fill-opacity=".2"/><rect x="5" y="3" width="1" height="1" transform="rotate(.4 5 3)" fill="white" fill-opacity=".2"/><rect x="1" y="1" width="1" height="1" fill="white" fill-opacity=".2"/><rect y="2" width="1" height="1" fill="white" fill-opacity=".2"/><rect x="10" y="1" width="1" height="1" fill="white" fill-opacity=".2"/><rect x="9" y="2" width="1" height="1" fill="white" fill-opacity=".2"/><rect x="8" y="3" width="1" height="1" fill="white" fill-opacity=".2"/><rect x="11" y="3" width="1" height="1" fill="white" fill-opacity=".2"/></g><g id="eyes-variant10-d5d6486b"><rect width="3" height="3" fill="white"/><rect x="5" width="3" height="3" fill="white"/><rect x="6" width="2" height="2" fill="#876658"/><rect x="1" width="2" height="2" fill="#876658"/><rect x="1" width="1" height="1" fill="white" fill-opacity=".4"/><rect x="2" y="1" width="1" height="1" fill="white" fill-opacity=".4"/><rect x="6" width="1" height="1" fill="white" fill-opacity=".4"/><rect x="7" y="1" width="1" height="1" fill="white" fill-opacity=".4"/><rect x="7" width="1" height="1" fill="white" fill-opacity=".7"/><rect x="2" width="1" height="1" fill="white" fill-opacity=".7"/></g><g id="mouth-happy10-d5d6486b"><path d="M4 0v1H3v1H1V1h2V0z" fill="#e35d6a"/></g><g id="hair-short20-d5d6486b"><rect x="6" y="2" width="4" height="1" fill="#603015"/><rect x="7" y="3" width="2" height="1" fill="#603015"/></g><clipPath id="clip-d5d6486b"><rect width="16" height="16" rx="0" ry="0"/></clipPath></defs><g clip-path="url(#clip-d5d6486b)"><rect width="16" height="16" fill="#c0aede"/><path d="M4 2h8v1h1v3h1v2h-1v3h-1v1H9v1h4v1h1v2H2v-2h1v-1h4v-1H4v-1H3V8H2V6h1V3h1z" fill="#ffdbac"/><path d="M4 2h8v1h1v3h1v2h-1v3h-1v1H4v-1H3V8H2V6h1V3h1z" fill="white" fill-opacity=".1"/><use transform="translate(2 12)" href="#clothes-variant02-d5d6486b"/><use transform="translate(4 5)" href="#eyes-variant10-d5d6486b"/><use transform="translate(6 9)" href="#mouth-happy10-d5d6486b"/><use href="#hair-short20-d5d6486b"/></g></svg>