<svg xmlns="http://www.w3.org/2000/svg" viewBox="0 0 16 16" fill="none" shape-rendering="crispEdges" aria-hidden="true"><metadata xmlns:rdf="http://www.w3.org/1999/02/22-rdf-syntax-ns#" xmlns:xsi="http://www.w3.org/2001/XMLSchema-instance" xmlns:dc="http://purl.org/dc/elements/1.1/" xmlns:dcterms="http://purl.org/dc/terms/"><rdf:RDF><rdf:Description><dc:title>Pixel Art</dc:title><dc:creator>DiceBear</dc:creator><dc:source xsi:type="dcterms:URI">https://www.figma.com/community/file/1198754108850888330</dc:source><dcterms:license xsi:type="dcterms:URI">https://creativecommons.org/publicdomain/zero/1.0/</dcterms:license><dc:rights>“Pixel Art” (https://www.figma.com/community/file/1198754108850888330) by “DiceBear”, licensed under “CC0 1.0” (https://creativecommons.org/publicdomain/zero/1.0/)</dc:rights></rdf:Description></rdf:RDF></metadata><defs><g id="clothes-variant05-e6d42497"><path d="M3 2h1v1h4V2h1V1h2v1h1v2H0V2h1V1h2z" fill="#88d8b0"/></g><g id="eyes-variant12-e6d42497"><path fill-rule="evenodd" clip-rule="evenodd" d="M1 1h1v2H0V2h1zm5 0h1v2H5V2h1z" fill="white"/><path fill-rule="evenodd" clip-rule="evenodd" d="M2 1v1H1v1h2V1zm5 0v1H6v1h2V1z" fill="#876658"/><path fill-rule="evenodd" clip-rule="evenodd" d="M2 1v1h1V1zM1 2v1h1V2zm6-1v1h1V1zM6 2v1h1V2z" fill="white" fill-opacity=".5"/></g><g id="mouth-sad07-e6d42497"><path d="M1 0h2v1H1z" fill="#e35d6a"/></g><g id="hair-short07-e6d42497"><rect x="3" y="3" width="1" height="1" fill="#611c17"/><rect width="1" height="1" transform="matrix(-1 0 0 1 5 2)" fill="#611c17"/><rect width="1" height="1" transform="matrix(-1 0 0 1 12 2)" fill="#611c17"/><rect width="1" height="1" transform="matrix(-1 0 0 1 13 3)" fill="#611c17"/></g><clipPath id="clip-e6d42497"><rect width="16" height="16" rx="0" ry="0"/></clipPath></defs><g clip-path="url(#clip-e6d42497)"><rect width="16" height="16" fill="#d1d4f9"/><path d="M4 2h8v1h1v3h1v2h-1v3h-1v1H9v1h4v1h1v2H2v-2h1v-1h4v-1H4v-1H3V8H2V6h1V3h1z" fill="#8d5524"/><path d="M4 2h8v1h1v3h1v2h-1v3h-1v1H4v-1H3V8H2V6h1V3h1z" fill="white" fill-opacity=".1"/><use transform="translate(2 12)" href="#clothes-variant05-e6d42497"/><use transform="translate(4 5)" href="#eyes-variant12-e6d42497"/><use transform="translate(6 9)" href="#mouth-sad07-e6d42497"/><use href="#hair-short07-e6d42497"/></g></svg>