<svg xmlns="http://www.w3.org/2000/svg" viewBox="0 0 16 16" fill="none" shape-rendering="crispEdges" aria-hidden="true"><metadata xmlns:rdf="http://www.w3.org/1999/02/22-rdf-syntax-ns#" xmlns:xsi="http://www.w3.org/2001/XMLSchema-instance" xmlns:dc="http://purl.org/dc/elements/1.1/" xmlns:dcterms="http://purl.org/dc/terms/"><rdf:RDF><rdf:Description><dc:title>Pixel Art</dc:title><dc:creator>DiceBear</dc:creator><dc:source xsi:type="dcterms:URI">https://www.figma.com/community/file/1198754108850888330</dc:source><dcterms:license xsi:type="dcterms:URI">https://creativecommons.org/publicdomain/zero/1.0/</dcterms:license><dc:rights>“Pixel Art” (https://www.figma.com/community/file/1198754108850888330) by “DiceBear”, licensed under “CC0 1.0” (https://creativecommons.org/publicdomain/zero/1.0/)</dc:rights></rdf:Description></rdf:RDF></metadata><defs><g id="clothes-variant02-cfd63ef9"><path d="M8 1h3v1h1v2H0V2h1V1h3v2h4z" fill="#88d8b0"/><rect x="3" y="2" width="1" height="1" fill="white" fill-opacity=".2"/><rect x="2" y="3" width="1" height="1" transform="rotate(.4 2 3)" fill="white" fill-opacity=".2"/><rect x="5" y="3" width="1" height="1" transform="rotate(.4 5 3)" fill="white" fill-opacity=".2"/><rect x="1" y="1" width="1" height="1" fill="white" fill-opacity=".2"/><rect y="2" width="1" height="1" fill="white" fill-opacity=".2"/><rect x="10" y="1" width="1" height="1" fill="white" fill-opacity=".2"/><rect x="9" y="2" width="1" height="1" fill="white" fill-opacity=".2"/><rect x="8" y="3" width="1" height="1" fill="white" fill-opacity=".2"/><rect x="11" y="3" width="1" height="1" fill="white" fill-opacity=".2"/></g><g id="eyes-variant01-cfd63ef9"><rect width="3" height="3" transform="matrix(-1 0 0 1 8 0)" fill="white"/><rect width="3" height="3" transform="matrix(-1 0 0 1 3 0)" fill="white"/><rect width="2" height="1" transform="matrix(-1 0 0 1 8 1)" fill="#697b94"/><rect width="2" height="1" transform="matrix(-1 0 0 1 3 1)" fill="#697b94"/><rect width="1" height="1" transform="matrix(-1 0 0 1 8 1)" fill="white" fill-opacity=".7"/><rect width="1" height="1" transform="matrix(-1 0 0 1 3 1)" fill="white" fill-opacity=".7"/></g><g id="glasses-light06-cfd63ef9"><path fill-rule="evenodd" clip-rule="evenodd" d="M0 1v1h1v2h1v1h3V4h2v1h3V4h1V2h1V1zm10 3H7V2h3zM5 4H2V2h3z" fill="#5f705c"/><rect x="7" y="2" width="3" height="2" fill="white" fill-opacity=".3"/><rect x="2" y="2" width="3" height="2" fill="white" fill-opacity=".3"/><rect x="5" y="1" width="2" height="1" fill="white" fill-opacity=".2"/><rect y="1" width="2" height="1" fill="white" fill-opacity=".2"/><rect x="10" y="1" width="2" height="1" fill="white" fill-opacity=".2"/></g><g id="mouth-sad09-cfd63ef9"><path d="M0 1v1h1V1h3V0H1v1z" fill="#d29985"/></g><g id="hair-long13-cfd63ef9"><path d="M13 1H3v1H2v1H1v11h2V4h10v10h2V3h-1V2h-1z" fill="#28150a"/></g><clipPath id="clip-cfd63ef9"><rect width="16" height="16" rx="0" ry="0"/></clipPath></defs><g clip-path="url(#clip-cfd63ef9)"><rect width="16" height="16" fill="#b6e3f4"/><path d="M4 2h8v1h1v3h1v2h-1v3h-1v1H9v1h4v1h1v2H2v-2h1v-1h4v-1H4v-1H3V8H2V6h1V3h1z" fill="#f5cfa0"/><path d="M4 2h8v1h1v3h1v2h-1v3h-1v1H4v-1H3V8H2V6h1V3h1z" fill="white" fill-opacity=".1"/><use transform="translate(2 12)" href="#clothes-variant02-cfd63ef9"/><use transform="translate(4 5)" href="#eyes-variant01-cfd63ef9"/><use transform="translate(2 4)" href="#glasses-light06-cfd63ef9"/><use transform="translate(6 9)" href="#mouth-sad09-cfd63ef9"/><use href="#hair-long13-cfd63ef9"/></g></svg>