<svg xmlns="http://www.w3.org/2000/svg" viewBox="0 0 16 16" fill="none" shape-rendering="crispEdges" aria-hidden="true"><metadata xmlns:rdf="http://www.w3.org/1999/02/22-rdf-syntax-ns#" xmlns:xsi="http://www.w3.org/2001/XMLSchema-instance" xmlns:dc="http://purl.org/dc/elements/1.1/" xmlns:dcterms="http://purl.org/dc/terms/"><rdf:RDF><rdf:Description><dc:title>Pixel Art</dc:title><dc:creator>DiceBear</dc:creator><dc:source xsi:type="dcterms:URI">https://www.figma.com/community/file/1198754108850888330</dc:source><dcterms:license xsi:type="dcterms:URI">https://creativecommons.org/publicdomain/zero/1.0/</dcterms:license><dc:rights>“Pixel Art” (https://www.figma.com/community/file/1198754108850888330) by “DiceBear”, licensed under “CC0 1.0” (https://creativecommons.org/publicdomain/zero/1.0/)</dc:rights></rdf:Description></rdf:RDF></metadata><defs><g id="clothes-variant20-d0d6408c"><rect x="2" y="2" width="8" height="2" fill="#ffeead"/><rect x="2" y="2" width="1" height="2" fill="white" fill-opacity=".3"/><rect x="9" y="2" width="1" height="2" fill="white" fill-opacity=".3"/></g><g id="eyes-variant03-d0d6408c"><path d="M6 0h1v2H5V1h1zM1 0h1v2H0V1h1z" fill="white"/><rect width="1" height="1" transform="matrix(-1 0 0 1 7 1)" fill="#76778b"/><rect width="1" height="1" transform="matrix(-1 0 0 1 2 1)" fill="#76778b"/></g><g id="mouth-sad01-d0d6408c"><path d="M1 2H0V1h1zm3 0H3V1h1zM3 1H1V0h2z" fill="#d29985"/></g><g id="hair-long01-d0d6408c"><path d="M12 1H5v1H4v1H3v1H2v2h2V5h1V4h1V3h5v1h1v1h1v1h1V3h-1V2h-1zm1 7h1v6h-1v-1H9v-1h3v-1h1zM2 8h1v3h1v1h3v1H3v1H2z" fill="#91cb15"/></g><clipPath id="clip-d0d6408c"><rect width="16" height="16" rx="0" ry="0"/></clipPath></defs><g clip-path="url(#clip-d0d6408c)"><rect width="16" height="16" fill="#c0aede"/><path d="M4 2h8v1h1v3h1v2h-1v3h-1v1H9v1h4v1h1v2H2v-2h1v-1h4v-1H4v-1H3V8H2V6h1V3h1z" fill="#eac393"/><path d="M4 2h8v1h1v3h1v2h-1v3h-1v1H4v-1H3V8H2V6h1V3h1z" fill="white" fill-opacity=".1"/><use transform="translate(2 12)" href="#clothes-variant20-d0d6408c"/><use transform="translate(4 5)" href="#eyes-variant03-d0d6408c"/><use transform="translate(6 9)" href="#mouth-sad01-d0d6408c"/><use href="#hair-long01-d0d6408c"/></g></svg>